<svg data-v-423bf9ae="" xmlns="http://www.w3.org/2000/svg" viewBox="0 0 180.91524122666115 60" class="font"><!----><!----><!----><g data-v-423bf9ae="" id="a82793f9-564c-4c8c-9bcd-6534f65ce6d0" fill="black" transform="matrix(5.084745680522181,0,0,5.084745680522181,-1.1186414434543792,-19.27118641204857)"><path d="M4.90 12.35L4.90 12.35Q4.41 12.67 3.77 12.67L3.77 12.67L3.77 12.67Q2.61 12.67 1.93 12.02L1.93 12.02L1.93 12.02Q1.24 11.38 1.24 10.35L1.24 10.35L1.24 7.39L0.22 7.39L0.22 5.84L1.24 5.84L1.24 3.99L3.17 3.79L3.17 5.84L4.19 5.84L4.19 7.39L3.17 7.39L3.17 10.08L3.17 10.08Q3.17 10.62 3.39 10.85L3.39 10.85L3.39 10.85Q3.62 11.07 3.99 11.07L3.99 11.07L3.99 11.07Q4.09 11.07 4.50 10.98L4.50 10.98L4.90 12.35ZM6.95 7.82L6.19 6.66L6.19 6.66Q7.49 5.84 9.20 5.84L9.20 5.84L9.20 5.84Q10.43 5.84 11.15 6.52L11.15 6.52L11.15 6.52Q11.87 7.21 11.87 8.57L11.87 8.57L11.87 12.67L9.95 12.67L9.95 12.13L9.95 12.13Q9.12 12.67 8.45 12.67L8.45 12.67L8.45 12.67Q7.08 12.67 6.40 12.09L6.40 12.09L6.40 12.09Q5.71 11.51 5.71 10.49L5.71 10.49L5.71 10.49Q5.71 9.53 6.36 8.78L6.36 8.78L6.36 8.78Q7.01 8.03 8.45 8.03L8.45 8.03L8.45 8.03Q9.11 8.03 9.95 8.44L9.95 8.44L9.95 8.23L9.95 8.23Q9.94 7.48 8.86 7.41L8.86 7.41L8.86 7.41Q7.63 7.41 6.95 7.82L6.95 7.82ZM9.95 10.62L9.95 10.62L9.95 9.85L9.95 9.85Q9.68 9.32 8.65 9.32L8.65 9.32L8.65 9.32Q7.42 9.46 7.36 10.28L7.36 10.28L7.36 10.28Q7.42 11.09 8.65 11.16L8.65 11.16L8.65 11.16Q9.68 11.16 9.95 10.62ZM15.49 8.33L15.49 8.33L15.49 12.67L13.58 12.67L13.58 6.04L15.49 5.83L15.49 6.45L15.49 6.45Q16.18 5.84 17.13 5.84L17.13 5.84L17.13 5.84Q18.43 5.84 19.11 6.62L19.11 6.62L19.11 6.62Q19.80 7.41 19.80 8.44L19.80 8.44L19.80 12.67L17.88 12.67L17.88 8.91L17.88 8.91Q17.88 8.23 17.54 7.85L17.54 7.85L17.54 7.85Q17.20 7.48 16.51 7.46L16.51 7.46L16.51 7.46Q15.91 7.50 15.49 8.33ZM25.94 5.84L27.86 6.04L27.86 12.13L27.86 12.13Q27.86 13.56 27.00 14.53L27.00 14.53L27.00 14.53Q26.15 15.49 24.85 15.54L24.85 15.54L24.44 15.59L24.44 15.59Q22.46 15.54 21.36 14.45L21.36 14.45L22.25 13.43L22.25 13.43Q23.00 13.97 24.08 14.04L24.08 14.04L24.08 14.04Q25.17 14.04 25.56 13.53L25.56 13.53L25.56 13.53Q25.94 13.02 25.94 12.40L25.94 12.40L25.94 12.06L25.94 12.06Q25.18 12.67 24.17 12.67L24.17 12.67L24.17 12.67Q22.59 12.67 21.81 11.75L21.81 11.75L21.81 11.75Q21.02 10.83 21.02 9.26L21.02 9.26L21.02 9.26Q21.02 7.75 21.88 6.79L21.88 6.79L21.88 6.79Q22.73 5.84 24.30 5.84L24.30 5.84L24.30 5.84Q25.46 5.91 25.94 6.46L25.94 6.46L25.94 5.84ZM25.94 9.87L25.94 9.87L25.94 8.76L25.94 8.76Q25.81 7.62 24.51 7.42L24.51 7.42L24.51 7.42Q22.80 7.48 22.66 9.12L22.66 9.12L22.66 9.12Q22.73 11.03 24.51 11.10L24.51 11.10L24.51 11.10Q25.81 10.90 25.94 9.87ZM32.31 12.74L32.31 12.74Q30.82 12.74 29.83 11.74L29.83 11.74L29.83 11.74Q28.83 10.74 28.83 9.26L28.83 9.26L28.83 9.26Q28.83 7.77 29.83 6.77L29.83 6.77L29.83 6.77Q30.82 5.77 32.31 5.77L32.31 5.77L32.31 5.77Q33.80 5.77 34.80 6.77L34.80 6.77L34.80 6.77Q35.80 7.77 35.80 9.26L35.80 9.26L35.80 9.26Q35.80 10.75 34.80 11.74L34.80 11.74L34.80 11.74Q33.80 12.74 32.31 12.74L32.31 12.74ZM32.31 11.09L32.31 11.09L32.31 11.09Q33.09 11.09 33.57 10.56L33.57 10.56L33.57 10.56Q34.06 10.04 34.06 9.26L34.06 9.26L34.06 9.26Q34.06 8.48 33.57 7.96L33.57 7.96L33.57 7.96Q33.09 7.43 32.30 7.43L32.30 7.43L32.30 7.43Q31.53 7.43 31.04 7.96L31.04 7.96L31.04 7.96Q30.56 8.48 30.56 9.26L30.56 9.26L30.56 9.26Q30.56 10.04 31.04 10.56L31.04 10.56L31.04 10.56Q31.53 11.09 32.31 11.09Z"></path></g><!----><!----></svg>